<svg width="22" height="22" viewBox="0 0 22 22" fill="none" xmlns="http://www.w3.org/2000/svg">
<g id="noun_Hryvnia_248776 1">
<g id="Group">
<path id="Vector" d="M17.4635 12.0937H8.71689C9.34159 11.8098 10.0184 11.5961 10.7172 11.3783C11.9816 10.9843 13.2828 10.5761 14.3413 9.68637H17.4635C17.7167 9.68637 17.9218 9.48119 17.9218 9.22804C17.9218 8.97488 17.7167 8.7697 17.4635 8.7697H15.1648C15.7075 7.91968 15.8415 6.87715 15.5131 5.8131C15.0275 4.23972 13.6389 2.92452 12.1361 2.61479C10.7409 2.3269 9.18522 2.64129 7.97673 3.45519C6.9197 4.16703 6.21913 5.20187 6.00375 6.36954C5.95791 6.6184 6.12245 6.85759 6.37149 6.90343C6.61999 6.94783 6.85936 6.78491 6.90537 6.53569C7.07546 5.61257 7.63781 4.78865 8.48877 4.21573C9.49711 3.53647 10.7903 3.27221 11.9513 3.51284C13.1412 3.75776 14.2459 4.81515 14.6372 6.08344C14.8141 6.65636 14.9771 7.75528 14.0829 8.67911C14.0515 8.71161 14.0166 8.73846 13.9845 8.7697H4.53618C4.28303 8.7697 4.07785 8.97488 4.07785 9.22804C4.07785 9.48119 4.28303 9.68637 4.53618 9.68637H12.6534C11.9728 10.0221 11.2222 10.2607 10.4446 10.5031C9.22996 10.8818 7.97991 11.274 6.9402 12.0937H4.53618C4.28303 12.0937 4.07785 12.2989 4.07785 12.552C4.07785 12.8052 4.28303 13.0104 4.53618 13.0104H6.07424C5.34494 14.1401 5.32484 15.7017 6.08503 17.0509C7.06883 18.7965 8.97933 19.4879 10.8127 19.4879C11.45 19.4879 12.0781 19.4045 12.6546 19.2526C15.0694 18.6163 16.5669 16.9252 16.563 14.8394C16.5626 14.5862 16.3574 14.3818 16.1046 14.3818C16.1043 14.3818 16.1039 14.3818 16.1039 14.3818C15.8508 14.3821 15.6459 14.588 15.6463 14.8408C15.6502 16.8127 13.9827 17.9546 12.4211 18.3661C10.4553 18.8835 7.92212 18.4438 6.88353 16.6011C6.31491 15.5917 6.16613 14.0627 7.18342 13.0916C7.21388 13.0626 7.24724 13.0384 7.27833 13.0104H17.4635C17.7167 13.0104 17.9218 12.8052 17.9218 12.552C17.9218 12.2989 17.7167 12.0937 17.4635 12.0937Z" fill="#1D1C1A"/>
</g>
</g>
</svg>
