<svg width="22" height="22" viewBox="0 0 22 22" fill="none" xmlns="http://www.w3.org/2000/svg">
<path d="M19.2014 7.613C19.1922 6.91874 19.0622 6.23138 18.8173 5.58167C18.605 5.03364 18.2807 4.53593 17.8651 4.12034C17.4495 3.70476 16.9518 3.38043 16.4038 3.16808C15.7624 2.92733 15.0848 2.79715 14.3999 2.78308C13.5181 2.74367 13.2385 2.73267 11 2.73267C8.7615 2.73267 8.47459 2.73267 7.59917 2.78308C6.91457 2.79725 6.23732 2.92743 5.59625 3.16808C5.04814 3.38028 4.55036 3.70456 4.13475 4.12016C3.71914 4.53577 3.39487 5.03355 3.18267 5.58167C2.94143 6.22254 2.81153 6.89993 2.79859 7.58458C2.75917 8.46733 2.74725 8.74692 2.74725 10.9854C2.74725 13.2239 2.74725 13.5099 2.79859 14.3862C2.81234 15.0719 2.94159 15.7484 3.18267 16.391C3.39522 16.9389 3.71974 17.4365 4.13549 17.852C4.55123 18.2674 5.04906 18.5915 5.59717 18.8037C6.23648 19.0541 6.91384 19.1936 7.60009 19.2162C8.48284 19.2556 8.76242 19.2675 11.0009 19.2675C13.2394 19.2675 13.5263 19.2675 14.4018 19.2162C15.0866 19.2027 15.7642 19.0728 16.4056 18.8321C16.9535 18.6195 17.4511 18.2951 17.8666 17.8795C18.2822 17.464 18.6066 16.9664 18.8192 16.4185C19.0603 15.7768 19.1895 15.1003 19.2033 14.4137C19.2427 13.5319 19.2546 13.2523 19.2546 11.0129C19.2528 8.77442 19.2528 8.49025 19.2014 7.613ZM10.9945 15.2186C8.65334 15.2186 6.75675 13.322 6.75675 10.9808C6.75675 8.63967 8.65334 6.74308 10.9945 6.74308C12.1184 6.74308 13.1963 7.18956 13.991 7.98429C14.7858 8.77902 15.2323 9.85691 15.2323 10.9808C15.2323 12.1048 14.7858 13.1826 13.991 13.9774C13.1963 14.7721 12.1184 15.2186 10.9945 15.2186ZM15.4009 7.5745C15.2711 7.57462 15.1426 7.54914 15.0226 7.49953C14.9027 7.44991 14.7937 7.37712 14.7019 7.28534C14.6101 7.19356 14.5373 7.08457 14.4877 6.96463C14.4381 6.84469 14.4126 6.71613 14.4128 6.58633C14.4128 6.45662 14.4383 6.32819 14.4879 6.20835C14.5376 6.08852 14.6103 5.97963 14.702 5.88792C14.7938 5.7962 14.9026 5.72345 15.0225 5.67381C15.1423 5.62417 15.2708 5.59862 15.4005 5.59862C15.5302 5.59862 15.6586 5.62417 15.7784 5.67381C15.8983 5.72345 16.0072 5.7962 16.0989 5.88792C16.1906 5.97963 16.2633 6.08852 16.313 6.20835C16.3626 6.32819 16.3882 6.45662 16.3882 6.58633C16.3882 7.13267 15.9463 7.5745 15.4009 7.5745Z" fill="#DA1F39"/>
<path d="M10.9945 13.7334C12.5148 13.7334 13.7472 12.501 13.7472 10.9807C13.7472 9.46035 12.5148 8.22791 10.9945 8.22791C9.47418 8.22791 8.24173 9.46035 8.24173 10.9807C8.24173 12.501 9.47418 13.7334 10.9945 13.7334Z" fill="#DA1F39"/>
</svg>
