<svg width="22" height="22" viewBox="0 0 22 22" fill="none" xmlns="http://www.w3.org/2000/svg">
<path d="M2.35718 7.95459L10.7282 12.3082C10.8121 12.3519 10.9054 12.3747 11 12.3747C11.0947 12.3747 11.1879 12.3519 11.2719 12.3082L19.6429 7.95538V15.5179C19.6429 16.1701 19.3934 16.7977 18.9454 17.2718C18.4975 17.7459 17.8851 18.0306 17.2339 18.0675L17.0893 18.0714H4.91075C4.2585 18.0715 3.63096 17.8219 3.15685 17.374C2.68275 16.926 2.39803 16.3137 2.36111 15.6624L2.35718 15.5179V7.95459ZM4.91075 3.92859H17.0893C17.7416 3.92855 18.3691 4.1781 18.8432 4.62605C19.3173 5.07399 19.602 5.68638 19.639 6.33759L19.6429 6.48216V6.62673L11 11.121L2.35718 6.62673V6.48216C2.35714 5.82991 2.60668 5.20237 3.05463 4.72826C3.50258 4.25416 4.11497 3.96944 4.76618 3.93252L4.91075 3.92859H17.0893H4.91075Z" fill="#DA1F39"/>
</svg>
